<?xml version="1.0" encoding="UTF-8" standalone="no"?>
<svg
   xmlns:dc="http://purl.org/dc/elements/1.1/"
   xmlns:cc="http://creativecommons.org/ns#"
   xmlns:rdf="http://www.w3.org/1999/02/22-rdf-syntax-ns#"
   xmlns:svg="http://www.w3.org/2000/svg"
   xmlns="http://www.w3.org/2000/svg"
   xmlns:xlink="http://www.w3.org/1999/xlink"
   xmlns:sodipodi="http://sodipodi.sourceforge.net/DTD/sodipodi-0.dtd"
   xmlns:inkscape="http://www.inkscape.org/namespaces/inkscape"
   width="55.880001mm"
   height="128.5mm"
   viewBox="0 0 55.880006 128.50002"
   version="1.1"
   id="svg8"
   inkscape:version="0.92.3 (2405546, 2018-03-11)"
   sodipodi:docname="gchoice.svg">
  <defs
     id="defs2">
    <pattern
       inkscape:collect="always"
       xlink:href="#pattern5648"
       id="pattern6379"
       patternTransform="matrix(0.26458333,0,0,0.26458333,6.6907815,15.485947)" />
    <pattern
       patternUnits="userSpaceOnUse"
       width="30.23622"
       height="316.90682"
       patternTransform="matrix(0.26458333,0,0,0.26458333,6.6907816,16.020486)"
       id="pattern5648">
      <circle
         inkscape:label="in1"
         style="display:inline;opacity:1;vector-effect:none;fill:#00ff00;fill-opacity:1;fill-rule:evenodd;stroke:none;stroke-width:3.77952766;stroke-linecap:butt;stroke-linejoin:miter;stroke-miterlimit:4;stroke-dasharray:none;stroke-dashoffset:0;stroke-opacity:1;paint-order:normal"
         id="circle4956"
         cx="15.118111"
         cy="15.118111"
         r="15.118111" />
      <circle
         r="15.118111"
         cy="60.43755"
         cx="15.118111"
         id="circle4584"
         style="display:inline;opacity:1;vector-effect:none;fill:#00ff00;fill-opacity:1;fill-rule:evenodd;stroke:none;stroke-width:3.77952766;stroke-linecap:butt;stroke-linejoin:miter;stroke-miterlimit:4;stroke-dasharray:none;stroke-dashoffset:0;stroke-opacity:1;paint-order:normal"
         inkscape:label="in2" />
      <circle
         r="15.118111"
         cy="106.26265"
         cx="15.118111"
         id="circle4584-3"
         style="display:inline;opacity:1;vector-effect:none;fill:#00ff00;fill-opacity:1;fill-rule:evenodd;stroke:none;stroke-width:3.77952766;stroke-linecap:butt;stroke-linejoin:miter;stroke-miterlimit:4;stroke-dasharray:none;stroke-dashoffset:0;stroke-opacity:1;paint-order:normal"
         inkscape:label="in3" />
      <circle
         r="15.118111"
         cy="152.19664"
         cx="15.118111"
         id="circle4584-3-6"
         style="display:inline;opacity:1;vector-effect:none;fill:#00ff00;fill-opacity:1;fill-rule:evenodd;stroke:none;stroke-width:3.77952766;stroke-linecap:butt;stroke-linejoin:miter;stroke-miterlimit:4;stroke-dasharray:none;stroke-dashoffset:0;stroke-opacity:1;paint-order:normal"
         inkscape:label="in4" />
      <circle
         r="15.118111"
         cy="198.06938"
         cx="15.118111"
         id="circle4584-3-7"
         style="display:inline;opacity:1;vector-effect:none;fill:#00ff00;fill-opacity:1;fill-rule:evenodd;stroke:none;stroke-width:3.77952766;stroke-linecap:butt;stroke-linejoin:miter;stroke-miterlimit:4;stroke-dasharray:none;stroke-dashoffset:0;stroke-opacity:1;paint-order:normal"
         inkscape:label="in5" />
      <circle
         r="15.118111"
         cy="247.68687"
         cx="15.118111"
         id="circle4584-3-5"
         style="display:inline;opacity:1;vector-effect:none;fill:#00ff00;fill-opacity:1;fill-rule:evenodd;stroke:none;stroke-width:3.77952766;stroke-linecap:butt;stroke-linejoin:miter;stroke-miterlimit:4;stroke-dasharray:none;stroke-dashoffset:0;stroke-opacity:1;paint-order:normal"
         inkscape:label="in6" />
      <circle
         r="15.118111"
         cy="301.7887"
         cx="15.118111"
         id="circle4584-3-5-3"
         style="display:inline;opacity:1;vector-effect:none;fill:#00ff00;fill-opacity:1;fill-rule:evenodd;stroke:none;stroke-width:3.77952766;stroke-linecap:butt;stroke-linejoin:miter;stroke-miterlimit:4;stroke-dasharray:none;stroke-dashoffset:0;stroke-opacity:1;paint-order:normal"
         inkscape:label="in7" />
    </pattern>
  </defs>
  <sodipodi:namedview
     id="base"
     pagecolor="#ffffff"
     bordercolor="#666666"
     borderopacity="1.0"
     inkscape:pageopacity="0.0"
     inkscape:pageshadow="2"
     inkscape:zoom="0.98994949"
     inkscape:cx="37.222674"
     inkscape:cy="218.25737"
     inkscape:document-units="mm"
     inkscape:current-layer="layer1"
     showgrid="false"
     units="mm"
     inkscape:snap-bbox="true"
     inkscape:snap-page="true"
     inkscape:bbox-nodes="false"
     inkscape:snap-bbox-edge-midpoints="false"
     inkscape:window-width="1920"
     inkscape:window-height="1023"
     inkscape:window-x="0"
     inkscape:window-y="25"
     inkscape:window-maximized="1"
     inkscape:snap-bbox-midpoints="true"
     inkscape:snap-nodes="false"
     showguides="true"
     inkscape:guide-bbox="true" />
  <metadata
     id="metadata5">
    <rdf:RDF>
      <cc:Work
         rdf:about="">
        <dc:format>image/svg+xml</dc:format>
        <dc:type
           rdf:resource="http://purl.org/dc/dcmitype/StillImage" />
        <dc:title />
      </cc:Work>
    </rdf:RDF>
  </metadata>
  <g
     inkscape:label="Layer 1"
     inkscape:groupmode="layer"
     id="layer1"
     transform="translate(0,-168.49998)"
     style="display:inline">
    <rect
       style="display:inline;opacity:1;vector-effect:none;fill:#e6e6e6;fill-opacity:1;fill-rule:evenodd;stroke:none;stroke-width:0.87916154;stroke-linecap:butt;stroke-linejoin:miter;stroke-miterlimit:4;stroke-dasharray:none;stroke-dashoffset:0;stroke-opacity:1;paint-order:normal"
       id="rect420"
       width="55.870605"
       height="128.5"
       x="5.9211732e-17"
       y="168.49997" />
    <rect
       id="rect4651"
       width="12.561667"
       height="17.341722"
       x="36.749561"
       y="271.32019"
       style="stroke-width:0.25382787"
       ry="1.1693041" />
    <g
       transform="translate(4.3037332,161.79823)"
       aria-label="trig"
       style="font-style:normal;font-weight:normal;font-size:10.58333302px;line-height:1.25;font-family:sans-serif;letter-spacing:0px;word-spacing:0px;display:inline;fill:#000000;fill-opacity:1;stroke:none;stroke-width:0.26458332"
       id="text5460">
      <path
         d="m 3.3794587,121.40447 v 0.7121 h 0.9360325 v 0.32023 H 3.3794587 v 1.3615 q 0,0.27767 0.1052477,0.3874 0.1052477,0.10972 0.3672472,0.10972 h 0.4635376 v 0.32918 H 3.811646 q -0.4635376,0 -0.6538792,-0.18586 -0.1903415,-0.18586 -0.1903415,-0.64044 v -1.3615 H 2.297871 v -0.32023 h 0.6695543 v -0.7121 z"
         style="font-style:normal;font-variant:normal;font-weight:normal;font-stretch:normal;font-size:4.58611107px;font-family:'DejaVu Sans Mono';-inkscape-font-specification:'DejaVu Sans Mono';stroke-width:0.26458332"
         id="path5477"
         inkscape:connector-curvature="0" />
      <path
         d="m 7.349759,122.63385 q -0.1321194,-0.103 -0.2687174,-0.15003 -0.1365981,-0.047 -0.3000679,-0.047 -0.3851616,0 -0.588939,0.24184 -0.2037774,0.24185 -0.2037774,0.69867 v 1.24729 H 5.5739845 v -2.50803 h 0.4142728 v 0.49041 q 0.1030083,-0.26648 0.315743,-0.40755 0.2149739,-0.14332 0.5083238,-0.14332 0.1522732,0 0.2843926,0.0381 0.1321194,0.0381 0.2530423,0.11868 z"
         style="font-style:normal;font-variant:normal;font-weight:normal;font-stretch:normal;font-size:4.58611107px;font-family:'DejaVu Sans Mono';-inkscape-font-specification:'DejaVu Sans Mono';stroke-width:0.26458332"
         id="path5479"
         inkscape:connector-curvature="0" />
      <path
         d="m 8.0954499,122.11657 h 1.054716 v 2.18781 h 0.8173489 v 0.32022 H 7.9207836 v -0.32022 H 8.7381325 V 122.4368 H 8.0954499 Z m 0.6426826,-0.97634 h 0.4120334 v 0.52176 H 8.7381325 Z"
         style="font-style:normal;font-variant:normal;font-weight:normal;font-stretch:normal;font-size:4.58611107px;font-family:'DejaVu Sans Mono';-inkscape-font-specification:'DejaVu Sans Mono';stroke-width:0.26458332"
         id="path5481"
         inkscape:connector-curvature="0" />
      <path
         d="m 12.202348,123.35043 q 0,-0.46353 -0.152273,-0.70314 -0.150034,-0.24184 -0.438906,-0.24184 -0.302307,0 -0.461298,0.24184 -0.158991,0.23961 -0.158991,0.70314 0,0.46354 0.158991,0.70763 0.161231,0.24184 0.465777,0.24184 0.284393,0 0.434427,-0.24408 0.152273,-0.24409 0.152273,-0.70539 z m 0.412033,1.11294 q 0,0.56431 -0.266478,0.85542 -0.266478,0.29111 -0.783759,0.29111 -0.170188,0 -0.356051,-0.0313 -0.185863,-0.0314 -0.371726,-0.0918 v -0.40756 q 0.219453,0.10301 0.398598,0.15228 0.179145,0.0493 0.329179,0.0493 0.333657,0 0.485931,-0.18138 0.152273,-0.18139 0.152273,-0.57551 v -0.0179 -0.27991 q -0.09853,0.21049 -0.268718,0.3135 -0.170187,0.10301 -0.414272,0.10301 -0.438906,0 -0.700905,-0.35157 -0.262,-0.35158 -0.262,-0.94052 0,-0.59117 0.262,-0.94275 0.261999,-0.35157 0.700905,-0.35157 0.241845,0 0.409794,0.0963 0.167948,0.0963 0.273196,0.29783 v -0.3247 h 0.412033 z"
         style="font-style:normal;font-variant:normal;font-weight:normal;font-stretch:normal;font-size:4.58611107px;font-family:'DejaVu Sans Mono';-inkscape-font-specification:'DejaVu Sans Mono';stroke-width:0.26458332"
         id="path5483"
         inkscape:connector-curvature="0" />
    </g>
    <g
       aria-label="out"
       style="font-style:normal;font-weight:normal;font-size:5.29166651px;line-height:1.25;font-family:sans-serif;letter-spacing:0px;word-spacing:0px;fill:#000000;fill-opacity:1;stroke:none;stroke-width:0.26458332"
       id="text6475"
       transform="translate(11.625273,-0.18280159)">
      <path
         d="m 28.529907,284.19681 q -0.337619,0 -0.511252,0.26286 -0.173633,0.26286 -0.173633,0.77893 0,0.51367 0.173633,0.77894 0.173633,0.26286 0.511252,0.26286 0.340031,0 0.513664,-0.26286 0.173633,-0.26527 0.173633,-0.77894 0,-0.51607 -0.173633,-0.77893 -0.173633,-0.26286 -0.513664,-0.26286 z m 0,-0.37621 q 0.561895,0 0.858518,0.36415 0.299034,0.36415 0.299034,1.05385 0,0.69212 -0.296622,1.05627 -0.296623,0.36174 -0.86093,0.36174 -0.561895,0 -0.858518,-0.36174 -0.296622,-0.36415 -0.296622,-1.05627 0,-0.6897 0.296622,-1.05385 0.296623,-0.36415 0.858518,-0.36415 z"
         style="font-style:normal;font-variant:normal;font-weight:normal;font-stretch:normal;font-size:4.93888903px;font-family:'DejaVu Sans Mono';-inkscape-font-specification:'DejaVu Sans Mono';fill:#ffffff;fill-opacity:1;stroke-width:0.26458332"
         id="path6477"
         inkscape:connector-curvature="0" />
      <path
         d="m 30.485688,285.56417 v -1.67363 h 0.443728 v 1.67363 q 0,0.36414 0.127814,0.53536 0.130224,0.17122 0.40032,0.17122 0.313503,0 0.479901,-0.21945 0.166399,-0.22186 0.166399,-0.63424 v -1.52652 h 0.446139 v 2.69613 H 32.10385 v -0.40514 q -0.118167,0.23392 -0.32315,0.3545 -0.202572,0.12058 -0.475079,0.12058 -0.41479,0 -0.617361,-0.2701 -0.202572,-0.27251 -0.202572,-0.82234 z"
         style="font-style:normal;font-variant:normal;font-weight:normal;font-stretch:normal;font-size:4.93888903px;font-family:'DejaVu Sans Mono';-inkscape-font-specification:'DejaVu Sans Mono';fill:#ffffff;fill-opacity:1;stroke-width:0.26458332"
         id="path6479"
         inkscape:connector-curvature="0" />
      <path
         d="m 34.467185,283.11884 v 0.76687 h 1.008035 v 0.34486 h -1.008035 v 1.46623 q 0,0.29904 0.113344,0.4172 0.113343,0.11817 0.395497,0.11817 h 0.499194 v 0.3545 h -0.542602 q -0.499195,0 -0.704178,-0.20016 -0.204983,-0.20016 -0.204983,-0.68971 v -1.46623 h -0.721059 v -0.34486 h 0.721059 v -0.76687 z"
         style="font-style:normal;font-variant:normal;font-weight:normal;font-stretch:normal;font-size:4.93888903px;font-family:'DejaVu Sans Mono';-inkscape-font-specification:'DejaVu Sans Mono';fill:#ffffff;fill-opacity:1;stroke-width:0.26458332"
         id="path6481"
         inkscape:connector-curvature="0" />
    </g>
    <path
       style="fill:none;stroke:#000000;stroke-width:0.16161083px;stroke-linecap:butt;stroke-linejoin:miter;stroke-opacity:1"
       d="m 4.1577381,266.79811 v -33.56274 0"
       id="path6490"
       inkscape:connector-curvature="0" />
    <path
       id="text6509"
       style="font-style:normal;font-weight:normal;font-size:10.58333302px;line-height:1.25;font-family:sans-serif;letter-spacing:0px;word-spacing:0px;fill:#000000;fill-opacity:1;stroke:none;stroke-width:0.26458332"
       d="m 3.0380575,220.9097 v 0.64802 H 2.5450643 v 0.28526 h 0.4929932 v 0.46353 h 0.2216919 v -0.46353 h 0.9425781 c 0.2098063,0 0.3576009,-0.0439 0.4433839,-0.13178 0.085783,-0.0879 0.1286742,-0.23874 0.1286742,-0.45268 v -0.34882 h -0.227893 v 0.32091 c 0,0.12092 -0.025321,0.20567 -0.075964,0.25425 -0.050643,0.0486 -0.1400432,0.0729 -0.2682006,0.0729 H 3.2597494 v -0.64802 z m 0.0031,1.88051 v 0.2868 h 0.9813353 c 0.1767334,0 0.3126425,0.0357 0.4077272,0.10697 0.094051,0.0713 0.1410766,0.17415 0.1410766,0.30851 0,0.11575 -0.03669,0.20154 -0.1100709,0.25735 -0.073381,0.0548 -0.1881021,0.0822 -0.344165,0.0822 H 3.0411581 v 0.28526 h 1.0759033 c 0.2356446,0 0.4118613,-0.0434 0.52865,-0.13023 0.1157552,-0.0868 0.1736328,-0.21911 0.1736328,-0.39687 0,-0.11679 -0.025839,-0.2186 -0.077515,-0.30541 -0.051676,-0.0879 -0.1276409,-0.1571 -0.2278931,-0.20774 h 0.2604492 v -0.2868 z m 0.8728149,1.82159 c -0.2873209,0 -0.5121134,0.0599 -0.6743774,0.17983 -0.162264,0.11886 -0.243396,0.28319 -0.243396,0.493 0,0.10335 0.022737,0.19482 0.068213,0.2744 0.044442,0.0786 0.1095541,0.14159 0.195337,0.18913 H 3.038057 v 0.28681 H 5.43481 v -0.28681 H 4.5557943 c 0.085783,-0.0455 0.151412,-0.10748 0.1968873,-0.18603 0.044442,-0.0796 0.066663,-0.17208 0.066663,-0.2775 0,-0.20878 -0.080099,-0.37311 -0.2402954,-0.493 -0.1612305,-0.11989 -0.3829225,-0.17983 -0.6650757,-0.17983 z m -0.0062,0.29921 c 0.2211751,0 0.38809,0.0351 0.5007445,0.10542 0.1126549,0.0692 0.168982,0.17259 0.168982,0.31005 0,0.1385 -0.056844,0.2434 -0.1705321,0.31472 -0.1136881,0.0713 -0.2800863,0.10696 -0.4991944,0.10696 -0.2201416,0 -0.3865397,-0.0357 -0.4991943,-0.10696 -0.1136882,-0.0713 -0.1705322,-0.17622 -0.1705322,-0.31472 0,-0.13746 0.056327,-0.24081 0.1689819,-0.31005 0.1126546,-0.0703 0.2795695,-0.10542 0.5007446,-0.10542 z m -0.2092895,1.69912 c -0.2356446,0 -0.4113444,0.0439 -0.5270996,0.13177 -0.1167888,0.0868 -0.1751831,0.21859 -0.1751831,0.39533 0,0.11885 0.025838,0.22169 0.077515,0.30851 0.050643,0.0868 0.1255737,0.15554 0.2247925,0.20619 H 3.0380575 v 0.28525 h 1.7363281 v -0.28525 H 3.7930502 c -0.1767334,0 -0.3121257,-0.0357 -0.4061768,-0.10698 -0.095085,-0.0723 -0.1426269,-0.17518 -0.1426269,-0.30851 0,-0.11678 0.03669,-0.20257 0.1100708,-0.25734 0.07338,-0.0548 0.1881022,-0.0822 0.344165,-0.0822 h 1.0759033 v -0.2868 z m 0.8542113,1.8464 v 0.56585 H 3.0380575 v 0.73019 h 0.2216919 v -0.44493 h 1.2929442 v 0.56585 h 0.221692 v -1.41696 z m -2.1905638,0.56585 v 0.28526 h 0.3612182 v -0.28526 z"
       inkscape:connector-curvature="0" />
    <path
       style="display:inline;fill:none;stroke:#000000;stroke-width:0.16232911px;stroke-linecap:butt;stroke-linejoin:miter;stroke-opacity:1"
       d="m 4.1388392,217.71915 v -33.86173 0"
       id="path6490-1"
       inkscape:connector-curvature="0" />
    <g
       aria-label="rchoices"
       style="font-style:normal;font-weight:normal;font-size:10.58333302px;line-height:1.25;font-family:sans-serif;letter-spacing:0px;word-spacing:0px;fill:#000000;fill-opacity:1;stroke:none;stroke-width:0.26458332"
       id="text6593"
       transform="translate(7.3138397)">
      <path
         d="m 14.341508,171.74235 q -0.09147,-0.0713 -0.186035,-0.10387 -0.09457,-0.0326 -0.20774,-0.0326 -0.26665,0 -0.407727,0.16744 -0.141076,0.16743 -0.141076,0.48369 v 0.86351 h -0.286804 v -1.73633 h 0.286804 v 0.33952 q 0.07131,-0.18449 0.218591,-0.28216 0.148828,-0.0992 0.351917,-0.0992 0.105419,0 0.196887,0.0264 0.09147,0.0264 0.175183,0.0822 z"
         style="font-style:normal;font-variant:normal;font-weight:normal;font-stretch:normal;font-size:3.17499995px;font-family:'DejaVu Sans Mono';-inkscape-font-specification:'DejaVu Sans Mono';stroke-width:0.26458332"
         id="path6698"
         inkscape:connector-curvature="0" />
      <path
         d="m 16.105741,173.03219 q -0.114721,0.0667 -0.237195,0.0992 -0.120922,0.0341 -0.248046,0.0341 -0.403077,0 -0.63097,-0.24185 -0.226342,-0.24184 -0.226342,-0.66972 0,-0.42788 0.226342,-0.66973 0.227893,-0.24185 0.63097,-0.24185 0.125573,0 0.244946,0.0326 0.119372,0.0326 0.240295,0.10077 v 0.29921 q -0.113171,-0.10077 -0.227893,-0.14573 -0.113171,-0.045 -0.257348,-0.045 -0.268201,0 -0.412378,0.17363 -0.144178,0.17364 -0.144178,0.4961 0,0.32091 0.144178,0.49609 0.145727,0.17363 0.412378,0.17363 0.148828,0 0.26665,-0.045 0.117822,-0.0465 0.218591,-0.14262 z"
         style="font-style:normal;font-variant:normal;font-weight:normal;font-stretch:normal;font-size:3.17499995px;font-family:'DejaVu Sans Mono';-inkscape-font-specification:'DejaVu Sans Mono';stroke-width:0.26458332"
         id="path6700"
         inkscape:connector-curvature="0" />
      <path
         d="m 18.000199,172.04466 v 1.0759 h -0.286804 v -1.0759 q 0,-0.2341 -0.08217,-0.34417 -0.08216,-0.11007 -0.257348,-0.11007 -0.199988,0 -0.308508,0.14263 -0.106971,0.14107 -0.106971,0.40617 v 0.98134 h -0.285254 v -2.41226 h 0.285254 v 0.93638 q 0.07597,-0.14883 0.206189,-0.22479 0.130225,-0.0775 0.308509,-0.0775 0.2651,0 0.395324,0.17519 0.131775,0.17363 0.131775,0.5271 z"
         style="font-style:normal;font-variant:normal;font-weight:normal;font-stretch:normal;font-size:3.17499995px;font-family:'DejaVu Sans Mono';-inkscape-font-specification:'DejaVu Sans Mono';stroke-width:0.26458332"
         id="path6702"
         inkscape:connector-curvature="0" />
      <path
         d="m 19.235783,171.58422 q -0.217041,0 -0.328662,0.16898 -0.111621,0.16898 -0.111621,0.50075 0,0.33021 0.111621,0.50074 0.111621,0.16898 0.328662,0.16898 0.218591,0 0.330212,-0.16898 0.111621,-0.17053 0.111621,-0.50074 0,-0.33177 -0.111621,-0.50075 -0.111621,-0.16898 -0.330212,-0.16898 z m 0,-0.24185 q 0.361218,0 0.551904,0.2341 0.192236,0.23409 0.192236,0.67748 0,0.44493 -0.190686,0.67902 -0.190686,0.23255 -0.553454,0.23255 -0.361219,0 -0.551905,-0.23255 -0.190686,-0.23409 -0.190686,-0.67902 0,-0.44339 0.190686,-0.67748 0.190686,-0.2341 0.551905,-0.2341 z"
         style="font-style:normal;font-variant:normal;font-weight:normal;font-stretch:normal;font-size:3.17499995px;font-family:'DejaVu Sans Mono';-inkscape-font-specification:'DejaVu Sans Mono';stroke-width:0.26458332"
         id="path6704"
         inkscape:connector-curvature="0" />
      <path
         d="m 20.587638,171.38423 h 0.730188 v 1.51464 h 0.565857 v 0.22169 h -1.416968 v -0.22169 h 0.565857 v -1.29295 h -0.444934 z m 0.444934,-0.67593 h 0.285254 v 0.36122 h -0.285254 z"
         style="font-style:normal;font-variant:normal;font-weight:normal;font-stretch:normal;font-size:3.17499995px;font-family:'DejaVu Sans Mono';-inkscape-font-specification:'DejaVu Sans Mono';stroke-width:0.26458332"
         id="path6706"
         inkscape:connector-curvature="0" />
      <path
         d="m 23.745585,173.03219 q -0.114722,0.0667 -0.237195,0.0992 -0.120923,0.0341 -0.248047,0.0341 -0.403076,0 -0.630969,-0.24185 -0.226343,-0.24184 -0.226343,-0.66972 0,-0.42788 0.226343,-0.66973 0.227893,-0.24185 0.630969,-0.24185 0.125574,0 0.244947,0.0326 0.119372,0.0326 0.240295,0.10077 v 0.29921 q -0.113171,-0.10077 -0.227893,-0.14573 -0.113171,-0.045 -0.257349,-0.045 -0.2682,0 -0.412378,0.17363 -0.144177,0.17364 -0.144177,0.4961 0,0.32091 0.144177,0.49609 0.145728,0.17363 0.412378,0.17363 0.148828,0 0.266651,-0.045 0.117822,-0.0465 0.218591,-0.14262 z"
         style="font-style:normal;font-variant:normal;font-weight:normal;font-stretch:normal;font-size:3.17499995px;font-family:'DejaVu Sans Mono';-inkscape-font-specification:'DejaVu Sans Mono';stroke-width:0.26458332"
         id="path6708"
         inkscape:connector-curvature="0" />
      <path
         d="m 25.734611,172.18108 v 0.13953 h -1.235584 v 0.009 q 0,0.2837 0.147278,0.43873 0.148828,0.15503 0.418579,0.15503 0.136426,0 0.285254,-0.0434 0.148828,-0.0434 0.31781,-0.13177 v 0.2837 q -0.162781,0.0667 -0.314709,0.0992 -0.150379,0.0341 -0.291455,0.0341 -0.404627,0 -0.63252,-0.24185 -0.227893,-0.24339 -0.227893,-0.66972 0,-0.41548 0.223242,-0.66353 0.223242,-0.24805 0.595313,-0.24805 0.331762,0 0.522448,0.2248 0.192237,0.22479 0.192237,0.61391 z m -0.285254,-0.0837 q -0.0062,-0.25115 -0.119373,-0.38138 -0.111621,-0.13177 -0.322461,-0.13177 -0.206189,0 -0.339514,0.13643 -0.133325,0.13642 -0.15813,0.37827 z"
         style="font-style:normal;font-variant:normal;font-weight:normal;font-stretch:normal;font-size:3.17499995px;font-family:'DejaVu Sans Mono';-inkscape-font-specification:'DejaVu Sans Mono';stroke-width:0.26458332"
         id="path6710"
         inkscape:connector-curvature="0" />
      <path
         d="m 27.429081,171.44469 v 0.27906 q -0.122473,-0.0713 -0.246497,-0.10697 -0.124023,-0.0357 -0.252698,-0.0357 -0.193786,0 -0.289904,0.0636 -0.09457,0.062 -0.09457,0.19069 0,0.11627 0.07131,0.17363 0.07131,0.0574 0.355017,0.11162 l 0.114722,0.0217 q 0.21239,0.0403 0.320911,0.16124 0.11007,0.12092 0.11007,0.3147 0,0.25735 -0.182934,0.40308 -0.182935,0.14418 -0.508496,0.14418 -0.128675,0 -0.269751,-0.0279 -0.141077,-0.0264 -0.305408,-0.0806 v -0.29456 q 0.15968,0.0822 0.305408,0.12403 0.145727,0.0403 0.275952,0.0403 0.189136,0 0.293005,-0.076 0.10387,-0.0775 0.10387,-0.21549 0,-0.19844 -0.379822,-0.2744 l -0.0124,-0.003 -0.10697,-0.0217 q -0.246497,-0.0481 -0.359668,-0.16123 -0.113172,-0.11472 -0.113172,-0.31161 0,-0.2496 0.168982,-0.38447 0.168982,-0.13643 0.482141,-0.13643 0.139527,0 0.268201,0.0264 0.128674,0.0248 0.252698,0.076 z"
         style="font-style:normal;font-variant:normal;font-weight:normal;font-stretch:normal;font-size:3.17499995px;font-family:'DejaVu Sans Mono';-inkscape-font-specification:'DejaVu Sans Mono';stroke-width:0.26458332"
         id="path6712"
         inkscape:connector-curvature="0" />
    </g>
    <path
       style="display:inline;fill:none;stroke:#6c6c6c;stroke-width:0.34595701;stroke-linecap:butt;stroke-linejoin:miter;stroke-miterlimit:4;stroke-dasharray:0.69191401, 0.34595701;stroke-dashoffset:0;stroke-opacity:1"
       d="m 11.562056,187.58651 h 8.476948 v 0 0 0 0"
       id="path6599"
       inkscape:connector-curvature="0" />
    <path
       style="display:inline;fill:none;stroke:#6c6c6c;stroke-width:0.34595701;stroke-linecap:butt;stroke-linejoin:miter;stroke-miterlimit:4;stroke-dasharray:0.69191401, 0.34595701;stroke-dashoffset:0;stroke-opacity:1"
       d="m 11.533804,200.21445 h 8.47695 v 0 0 0 0"
       id="path6599-4"
       inkscape:connector-curvature="0" />
    <path
       style="display:inline;fill:none;stroke:#6c6c6c;stroke-width:0.34595701;stroke-linecap:butt;stroke-linejoin:miter;stroke-miterlimit:4;stroke-dasharray:0.69191401, 0.34595701;stroke-dashoffset:0;stroke-opacity:1"
       d="m 11.542846,212.83414 h 8.476949 v 0 0 0 0"
       id="path6599-4-7"
       inkscape:connector-curvature="0" />
    <path
       style="display:inline;fill:none;stroke:#6c6c6c;stroke-width:0.34595701;stroke-linecap:butt;stroke-linejoin:miter;stroke-miterlimit:4;stroke-dasharray:0.69191401, 0.34595701;stroke-dashoffset:0;stroke-opacity:1"
       d="m 11.542846,225.44908 h 8.476949 v 0 0 0 0"
       id="path6599-4-7-8"
       inkscape:connector-curvature="0" />
    <path
       style="display:inline;fill:none;stroke:#6c6c6c;stroke-width:0.34595701;stroke-linecap:butt;stroke-linejoin:miter;stroke-miterlimit:4;stroke-dasharray:0.69191401, 0.34595701;stroke-dashoffset:0;stroke-opacity:1"
       d="m 11.545107,238.13019 h 8.476949 v 0 0 0 0"
       id="path6599-4-7-8-4"
       inkscape:connector-curvature="0" />
    <path
       style="display:inline;fill:none;stroke:#6c6c6c;stroke-width:0.34595701;stroke-linecap:butt;stroke-linejoin:miter;stroke-miterlimit:4;stroke-dasharray:0.69191401, 0.34595701;stroke-dashoffset:0;stroke-opacity:1"
       d="m 11.549629,250.65065 h 8.47695 v 0 0 0 0"
       id="path6599-4-7-8-4-5"
       inkscape:connector-curvature="0" />
    <path
       style="display:inline;fill:none;stroke:#6c6c6c;stroke-width:0.34595701;stroke-linecap:butt;stroke-linejoin:miter;stroke-miterlimit:4;stroke-dasharray:0.69191401, 0.34595701;stroke-dashoffset:0;stroke-opacity:1"
       d="m 11.549628,263.28923 h 8.47695 v 0 0 0 0"
       id="path6599-4-7-8-4-5-0"
       inkscape:connector-curvature="0" />
    <g
       aria-label="mean"
       transform="translate(-29.115295,301.59439)"
       style="font-style:normal;font-weight:normal;font-size:10.58333302px;line-height:1.25;font-family:sans-serif;letter-spacing:0px;word-spacing:0px;display:inline;fill:#000000;fill-opacity:1;stroke:none;stroke-width:0.26458332"
       id="text923">
      <path
         d="m 54.235994,-31.85598 q 0.05271,-0.111621 0.133325,-0.164331 0.08217,-0.05426 0.196887,-0.05426 0.20929,0 0.294556,0.162781 0.08682,0.16123 0.08682,0.609265 v 1.00614 h -0.260449 v -0.993738 q 0,-0.367419 -0.04186,-0.455786 -0.04031,-0.08992 -0.148828,-0.08992 -0.124023,0 -0.170532,0.09612 -0.04496,0.09457 -0.04496,0.449585 v 0.993738 h -0.260449 v -0.993738 q 0,-0.37207 -0.04496,-0.458886 -0.04341,-0.08682 -0.15813,-0.08682 -0.113172,0 -0.15813,0.09612 -0.04341,0.09457 -0.04341,0.449585 v 0.993738 h -0.258899 v -1.736328 h 0.258899 v 0.148828 q 0.05116,-0.09302 0.127124,-0.141076 0.07751,-0.04961 0.175183,-0.04961 0.117822,0 0.195337,0.05426 0.07906,0.05426 0.122473,0.164331 z"
         style="font-style:normal;font-variant:normal;font-weight:normal;font-stretch:normal;font-size:3.17499995px;font-family:'DejaVu Sans Mono';-inkscape-font-specification:'DejaVu Sans Mono';stroke-width:0.26458332"
         id="path925"
         inkscape:connector-curvature="0" />
      <path
         d="m 56.821883,-31.235862 v 0.139526 h -1.235584 v 0.0093 q 0,0.283703 0.147278,0.438733 0.148828,0.155029 0.418579,0.155029 0.136426,0 0.285254,-0.04341 0.148828,-0.04341 0.31781,-0.131775 v 0.283703 q -0.162781,0.06666 -0.31471,0.09922 -0.150378,0.03411 -0.291455,0.03411 -0.404626,0 -0.632519,-0.241846 -0.227893,-0.243396 -0.227893,-0.669727 0,-0.415478 0.223242,-0.663525 0.223242,-0.248047 0.595312,-0.248047 0.331763,0 0.522449,0.224793 0.192237,0.224792 0.192237,0.613916 z m -0.285254,-0.08372 q -0.0062,-0.251148 -0.119373,-0.381372 -0.111621,-0.131775 -0.322461,-0.131775 -0.206189,0 -0.339514,0.136426 -0.133325,0.136425 -0.15813,0.378271 z"
         style="font-style:normal;font-variant:normal;font-weight:normal;font-stretch:normal;font-size:3.17499995px;font-family:'DejaVu Sans Mono';-inkscape-font-specification:'DejaVu Sans Mono';stroke-width:0.26458332"
         id="path927"
         inkscape:connector-curvature="0" />
      <path
         d="m 58.096223,-31.1692 h -0.09457 q -0.249597,0 -0.376721,0.08837 -0.125573,0.08682 -0.125573,0.260449 0,0.15658 0.09457,0.243396 0.09457,0.08682 0.262,0.08682 0.235644,0 0.37052,-0.162781 0.134875,-0.164331 0.136426,-0.452686 v -0.06356 z m 0.553455,-0.117822 v 0.990637 h -0.286804 v -0.257348 q -0.09147,0.155029 -0.230994,0.229443 -0.137976,0.07286 -0.336414,0.07286 -0.2651,0 -0.42323,-0.148828 -0.158129,-0.150379 -0.158129,-0.401526 0,-0.289905 0.193786,-0.440284 0.195337,-0.150378 0.572058,-0.150378 h 0.382923 v -0.04496 q -0.0016,-0.20774 -0.10542,-0.300757 -0.10387,-0.09457 -0.331763,-0.09457 -0.145727,0 -0.294556,0.04186 -0.148828,0.04186 -0.289904,0.122473 v -0.285254 q 0.15813,-0.06046 0.302307,-0.08992 0.145727,-0.03101 0.282153,-0.03101 0.215491,0 0.367419,0.06356 0.153479,0.06356 0.248047,0.190686 0.05891,0.07751 0.08372,0.192237 0.02481,0.113171 0.02481,0.341064 z"
         style="font-style:normal;font-variant:normal;font-weight:normal;font-stretch:normal;font-size:3.17499995px;font-family:'DejaVu Sans Mono';-inkscape-font-specification:'DejaVu Sans Mono';stroke-width:0.26458332"
         id="path929"
         inkscape:connector-curvature="0" />
      <path
         d="m 60.547237,-31.372288 v 1.075903 h -0.286805 v -1.075903 q 0,-0.234094 -0.08217,-0.344165 -0.08217,-0.110071 -0.257349,-0.110071 -0.199988,0 -0.308508,0.142627 -0.10697,0.141077 -0.10697,0.406177 v 0.981335 h -0.285254 v -1.736328 h 0.285254 v 0.260449 q 0.07596,-0.148828 0.206189,-0.224792 0.130224,-0.07751 0.308508,-0.07751 0.2651,0 0.395325,0.175183 0.131775,0.173633 0.131775,0.5271 z"
         style="font-style:normal;font-variant:normal;font-weight:normal;font-stretch:normal;font-size:3.17499995px;font-family:'DejaVu Sans Mono';-inkscape-font-specification:'DejaVu Sans Mono';stroke-width:0.26458332"
         id="path931"
         inkscape:connector-curvature="0" />
    </g>
    <path
       style="fill:none;stroke:#6c6c6c;stroke-width:0.26458332px;stroke-linecap:butt;stroke-linejoin:miter;stroke-opacity:1"
       d="m 27.345013,184.20685 c 0,0 13.046093,0.0167 14.365737,0.0167 1.319643,0 1.336347,1.11919 1.336347,1.11919 l -0.0167,4.44335 v 0 0 0 0 l 0.0167,0.0167"
       id="path1014"
       inkscape:connector-curvature="0" />
    <path
       style="fill:none;stroke:#6c6c6c;stroke-width:0.26458332px;stroke-linecap:butt;stroke-linejoin:miter;stroke-opacity:1"
       d="m 43.030393,189.10661 0.0167,9.03705 v 0 0"
       id="path1016"
       inkscape:connector-curvature="0" />
    <path
       style="display:inline;fill:none;stroke:#6c6c6c;stroke-width:0.39631939px;stroke-linecap:butt;stroke-linejoin:miter;stroke-opacity:1"
       d="m 43.032946,226.64191 0.01638,20.66357 v 0 0"
       id="path1016-2"
       inkscape:connector-curvature="0" />
    <g
       aria-label="spread"
       style="font-style:normal;font-weight:normal;font-size:10.58333302px;line-height:1.25;font-family:sans-serif;letter-spacing:0px;word-spacing:0px;fill:#000000;fill-opacity:1;stroke:none;stroke-width:0.26458332"
       id="text1119"
       transform="translate(0,-1.0583333)">
      <path
         d="m 38.819394,219.60926 v 0.27905 q -0.122473,-0.0713 -0.246497,-0.10697 -0.124023,-0.0357 -0.252697,-0.0357 -0.193787,0 -0.289905,0.0636 -0.09457,0.062 -0.09457,0.19068 0,0.11627 0.07131,0.17364 0.07131,0.0574 0.355017,0.11162 l 0.114722,0.0217 q 0.21239,0.0403 0.320911,0.16123 0.110071,0.12092 0.110071,0.31471 0,0.25735 -0.182935,0.40308 -0.182935,0.14417 -0.508496,0.14417 -0.128674,0 -0.269751,-0.0279 -0.141077,-0.0264 -0.305408,-0.0806 v -0.29455 q 0.15968,0.0822 0.305408,0.12402 0.145728,0.0403 0.275952,0.0403 0.189136,0 0.293005,-0.076 0.10387,-0.0775 0.10387,-0.21549 0,-0.19843 -0.379822,-0.2744 l -0.0124,-0.003 -0.10697,-0.0217 q -0.246497,-0.0481 -0.359668,-0.16123 -0.113172,-0.11472 -0.113172,-0.31161 0,-0.2496 0.168982,-0.38447 0.168982,-0.13643 0.482141,-0.13643 0.139527,0 0.268201,0.0264 0.128674,0.0248 0.252698,0.076 z"
         style="font-style:normal;font-variant:normal;font-weight:normal;font-stretch:normal;font-size:3.17499995px;font-family:'DejaVu Sans Mono';-inkscape-font-specification:'DejaVu Sans Mono';stroke-width:0.26458332"
         id="path1121"
         inkscape:connector-curvature="0" />
      <path
         d="m 39.80228,221.06653 v 0.87902 h -0.286805 v -2.39675 h 0.286805 v 0.22169 q 0.07131,-0.12867 0.189135,-0.19534 0.119373,-0.0682 0.274402,-0.0682 0.31471,0 0.492993,0.2434 0.179834,0.24339 0.179834,0.67437 0,0.42323 -0.179834,0.66508 -0.179834,0.24029 -0.492993,0.24029 -0.15813,0 -0.277502,-0.0667 -0.117823,-0.0682 -0.186035,-0.19689 z m 0.837158,-0.64802 q 0,-0.33176 -0.10542,-0.50074 -0.10387,-0.16898 -0.310059,-0.16898 -0.207739,0 -0.314709,0.17053 -0.10697,0.16898 -0.10697,0.49919 0,0.32866 0.10697,0.4992 0.10697,0.17053 0.314709,0.17053 0.206189,0 0.310059,-0.16898 0.10542,-0.16899 0.10542,-0.50075 z"
         style="font-style:normal;font-variant:normal;font-weight:normal;font-stretch:normal;font-size:3.17499995px;font-family:'DejaVu Sans Mono';-inkscape-font-specification:'DejaVu Sans Mono';stroke-width:0.26458332"
         id="path1123"
         inkscape:connector-curvature="0" />
      <path
         d="m 42.921469,219.90692 q -0.09147,-0.0713 -0.186035,-0.10387 -0.09457,-0.0326 -0.207739,-0.0326 -0.266651,0 -0.407728,0.16743 -0.141076,0.16743 -0.141076,0.48369 v 0.86352 h -0.286804 v -1.73633 h 0.286804 v 0.33951 q 0.07131,-0.18448 0.218591,-0.28215 0.148828,-0.0992 0.351917,-0.0992 0.10542,0 0.196887,0.0264 0.09147,0.0264 0.175183,0.0822 z"
         style="font-style:normal;font-variant:normal;font-weight:normal;font-stretch:normal;font-size:3.17499995px;font-family:'DejaVu Sans Mono';-inkscape-font-specification:'DejaVu Sans Mono';stroke-width:0.26458332"
         id="path1125"
         inkscape:connector-curvature="0" />
      <path
         d="m 44.764767,220.34565 v 0.13952 h -1.235583 v 0.009 q 0,0.2837 0.147278,0.43873 0.148828,0.15503 0.418579,0.15503 0.136426,0 0.285254,-0.0434 0.148828,-0.0434 0.31781,-0.13177 v 0.2837 q -0.162781,0.0667 -0.31471,0.0992 -0.150378,0.0341 -0.291455,0.0341 -0.404626,0 -0.632519,-0.24184 -0.227893,-0.2434 -0.227893,-0.66973 0,-0.41548 0.223242,-0.66352 0.223242,-0.24805 0.595312,-0.24805 0.331763,0 0.522449,0.22479 0.192236,0.22479 0.192236,0.61392 z m -0.285254,-0.0837 q -0.0062,-0.25115 -0.119372,-0.38137 -0.111621,-0.13177 -0.322461,-0.13177 -0.206189,0 -0.339514,0.13642 -0.133325,0.13643 -0.15813,0.37827 z"
         style="font-style:normal;font-variant:normal;font-weight:normal;font-stretch:normal;font-size:3.17499995px;font-family:'DejaVu Sans Mono';-inkscape-font-specification:'DejaVu Sans Mono';stroke-width:0.26458332"
         id="path1127"
         inkscape:connector-curvature="0" />
      <path
         d="m 46.039108,220.41231 h -0.09457 q -0.249597,0 -0.376721,0.0884 -0.125574,0.0868 -0.125574,0.26045 0,0.15658 0.09457,0.24339 0.09457,0.0868 0.262,0.0868 0.235644,0 0.37052,-0.16278 0.134875,-0.16433 0.136425,-0.45269 v -0.0636 z m 0.553455,-0.11782 v 0.99064 h -0.286805 v -0.25735 q -0.09147,0.15503 -0.230993,0.22944 -0.137976,0.0729 -0.336414,0.0729 -0.2651,0 -0.42323,-0.14882 -0.15813,-0.15038 -0.15813,-0.40153 0,-0.2899 0.193787,-0.44028 0.195337,-0.15038 0.572058,-0.15038 h 0.382922 v -0.045 q -0.0015,-0.20774 -0.10542,-0.30076 -0.103869,-0.0946 -0.331762,-0.0946 -0.145728,0 -0.294556,0.0418 -0.148828,0.0419 -0.289905,0.12248 v -0.28526 q 0.15813,-0.0605 0.302307,-0.0899 0.145728,-0.031 0.282154,-0.031 0.21549,0 0.367419,0.0636 0.153479,0.0636 0.248047,0.19069 0.05891,0.0775 0.08372,0.19223 0.02481,0.11318 0.02481,0.34107 z"
         style="font-style:normal;font-variant:normal;font-weight:normal;font-stretch:normal;font-size:3.17499995px;font-family:'DejaVu Sans Mono';-inkscape-font-specification:'DejaVu Sans Mono';stroke-width:0.26458332"
         id="path1129"
         inkscape:connector-curvature="0" />
      <path
         d="m 48.190915,219.77049 v -0.89762 h 0.285254 v 2.41226 h -0.285254 v -0.2186 q -0.07131,0.12868 -0.190686,0.19689 -0.117822,0.0667 -0.272852,0.0667 -0.314709,0 -0.496093,-0.24339 -0.179834,-0.24495 -0.179834,-0.67438 0,-0.42323 0.181384,-0.66352 0.181384,-0.24185 0.494543,-0.24185 0.15658,0 0.275952,0.0682 0.119373,0.0667 0.187586,0.19534 z m -0.838709,0.64802 q 0,0.33176 0.10542,0.50075 0.10542,0.16898 0.311609,0.16898 0.206189,0 0.313159,-0.17053 0.108521,-0.17054 0.108521,-0.4992 0,-0.33021 -0.108521,-0.49919 -0.10697,-0.17053 -0.313159,-0.17053 -0.206189,0 -0.311609,0.16898 -0.10542,0.16898 -0.10542,0.50074 z"
         style="font-style:normal;font-variant:normal;font-weight:normal;font-stretch:normal;font-size:3.17499995px;font-family:'DejaVu Sans Mono';-inkscape-font-specification:'DejaVu Sans Mono';stroke-width:0.26458332"
         id="path1131"
         inkscape:connector-curvature="0" />
    </g>
    <g
       aria-label="cv"
       style="font-style:normal;font-weight:normal;font-size:10.58333302px;line-height:1.25;font-family:sans-serif;letter-spacing:0px;word-spacing:0px;fill:#000000;fill-opacity:1;stroke:none;stroke-width:0.26458332"
       id="text1136"
       transform="translate(0,5.8208336)">
      <path
         d="m 42.686628,250.1945 q -0.08923,0.0519 -0.184485,0.0772 -0.09405,0.0265 -0.192926,0.0265 -0.313503,0 -0.490753,-0.18811 -0.176045,-0.1881 -0.176045,-0.52089 0,-0.3328 0.176045,-0.5209 0.17725,-0.1881 0.490753,-0.1881 0.09767,0 0.190514,0.0253 0.09285,0.0253 0.186897,0.0784 v 0.23272 q -0.08802,-0.0784 -0.177251,-0.11334 -0.08802,-0.035 -0.20016,-0.035 -0.2086,0 -0.320738,0.13505 -0.112138,0.13504 -0.112138,0.38585 0,0.24959 0.112138,0.38585 0.113344,0.13504 0.320738,0.13504 0.115756,0 0.207395,-0.035 0.09164,-0.0362 0.170016,-0.11093 z"
         style="font-style:normal;font-variant:normal;font-weight:normal;font-stretch:normal;font-size:2.46944451px;font-family:'DejaVu Sans Mono';-inkscape-font-specification:'DejaVu Sans Mono';stroke-width:0.26458332"
         id="path1138"
         inkscape:connector-curvature="0" />
      <path
         d="M 43.013395,248.91275 H 43.2437 l 0.391879,1.13344 0.393086,-1.13344 h 0.230304 l -0.479901,1.35048 h -0.285771 z"
         style="font-style:normal;font-variant:normal;font-weight:normal;font-stretch:normal;font-size:2.46944451px;font-family:'DejaVu Sans Mono';-inkscape-font-specification:'DejaVu Sans Mono';stroke-width:0.26458332"
         id="path1140"
         inkscape:connector-curvature="0" />
    </g>
    <g
       transform="translate(0.08189521,-42.623168)"
       aria-label="cv"
       style="font-style:normal;font-weight:normal;font-size:10.58333302px;line-height:1.25;font-family:sans-serif;letter-spacing:0px;word-spacing:0px;display:inline;fill:#000000;fill-opacity:1;stroke:none;stroke-width:0.26458332"
       id="text1136-3">
      <path
         d="m 42.686628,250.1945 q -0.08923,0.0519 -0.184485,0.0772 -0.09405,0.0265 -0.192926,0.0265 -0.313503,0 -0.490753,-0.18811 -0.176045,-0.1881 -0.176045,-0.52089 0,-0.3328 0.176045,-0.5209 0.17725,-0.1881 0.490753,-0.1881 0.09767,0 0.190514,0.0253 0.09285,0.0253 0.186897,0.0784 v 0.23272 q -0.08802,-0.0784 -0.177251,-0.11334 -0.08802,-0.035 -0.20016,-0.035 -0.2086,0 -0.320738,0.13505 -0.112138,0.13504 -0.112138,0.38585 0,0.24959 0.112138,0.38585 0.113344,0.13504 0.320738,0.13504 0.115756,0 0.207395,-0.035 0.09164,-0.0362 0.170016,-0.11093 z"
         style="font-style:normal;font-variant:normal;font-weight:normal;font-stretch:normal;font-size:2.46944451px;font-family:'DejaVu Sans Mono';-inkscape-font-specification:'DejaVu Sans Mono';stroke-width:0.26458332"
         id="path1138-6"
         inkscape:connector-curvature="0" />
      <path
         d="M 43.013395,248.91275 H 43.2437 l 0.391879,1.13344 0.393086,-1.13344 h 0.230304 l -0.479901,1.35048 h -0.285771 z"
         style="font-style:normal;font-variant:normal;font-weight:normal;font-stretch:normal;font-size:2.46944451px;font-family:'DejaVu Sans Mono';-inkscape-font-specification:'DejaVu Sans Mono';stroke-width:0.26458332"
         id="path1140-0"
         inkscape:connector-curvature="0" />
    </g>
    <g
       aria-label="gchoice"
       style="font-style:normal;font-weight:normal;font-size:10.58333302px;line-height:1.25;font-family:sans-serif;letter-spacing:0px;word-spacing:0px;fill:#000000;fill-opacity:1;stroke:none;stroke-width:0.26458332"
       id="text1187">
      <path
         d="m 16.280301,177.37526 q 0,-0.64182 -0.21084,-0.97358 -0.207739,-0.33486 -0.607715,-0.33486 -0.418579,0 -0.638721,0.33486 -0.220141,0.33176 -0.220141,0.97358 0,0.64182 0.220141,0.97979 0.223242,0.33486 0.644922,0.33486 0.393775,0 0.601514,-0.33796 0.21084,-0.33797 0.21084,-0.97669 z m 0.570507,1.54099 q 0,0.78135 -0.368969,1.18443 -0.36897,0.40307 -1.085205,0.40307 -0.235645,0 -0.492993,-0.0434 -0.257349,-0.0434 -0.514698,-0.12713 v -0.56431 q 0.303858,0.14263 0.551905,0.21084 0.248046,0.0682 0.455786,0.0682 0.461987,0 0.672827,-0.25115 0.21084,-0.25115 0.21084,-0.79685 v -0.0248 -0.38757 q -0.136426,0.29146 -0.372071,0.43408 -0.235644,0.14263 -0.573608,0.14263 -0.607715,0 -0.970483,-0.48679 -0.362769,-0.48679 -0.362769,-1.30225 0,-0.81855 0.362769,-1.30534 0.362768,-0.4868 0.970483,-0.4868 0.334863,0 0.567407,0.13333 0.232544,0.13332 0.378272,0.41238 v -0.44959 h 0.570507 z"
         style="font-style:normal;font-variant:normal;font-weight:normal;font-stretch:normal;font-size:6.3499999px;font-family:'DejaVu Sans Mono';-inkscape-font-specification:'DejaVu Sans Mono';stroke-width:0.26458332"
         id="path1189" />
      <path
         d="m 20.729641,178.96276 q -0.229443,0.13333 -0.474389,0.19844 -0.241846,0.0682 -0.496094,0.0682 -0.806152,0 -1.261939,-0.48369 -0.452685,-0.48369 -0.452685,-1.33945 0,-0.85576 0.452685,-1.33945 0.455787,-0.4837 1.261939,-0.4837 0.251147,0 0.489893,0.0651 0.238745,0.0651 0.48059,0.20153 v 0.59842 q -0.226342,-0.20154 -0.455786,-0.29146 -0.226343,-0.0899 -0.514697,-0.0899 -0.536401,0 -0.824756,0.34726 -0.288354,0.34727 -0.288354,0.99219 0,0.64182 0.288354,0.99219 0.291455,0.34726 0.824756,0.34726 0.297656,0 0.533301,-0.0899 0.235644,-0.093 0.437182,-0.28525 z"
         style="font-style:normal;font-variant:normal;font-weight:normal;font-stretch:normal;font-size:6.3499999px;font-family:'DejaVu Sans Mono';-inkscape-font-specification:'DejaVu Sans Mono';stroke-width:0.26458332"
         id="path1191" />
      <path
         d="m 24.518557,176.98769 v 2.15181 h -0.573608 v -2.15181 q 0,-0.46819 -0.164331,-0.68833 -0.164331,-0.22014 -0.514697,-0.22014 -0.399976,0 -0.617017,0.28525 -0.213941,0.28215 -0.213941,0.81235 v 1.96268 h -0.570507 v -4.82452 h 0.570507 v 1.87276 q 0.151929,-0.29766 0.412378,-0.44959 0.26045,-0.15503 0.617017,-0.15503 0.5302,0 0.790649,0.35037 0.26355,0.34727 0.26355,1.0542 z"
         style="font-style:normal;font-variant:normal;font-weight:normal;font-stretch:normal;font-size:6.3499999px;font-family:'DejaVu Sans Mono';-inkscape-font-specification:'DejaVu Sans Mono';stroke-width:0.26458332"
         id="path1193" />
      <path
         d="m 26.989724,176.06682 q -0.434082,0 -0.657324,0.33796 -0.223242,0.33796 -0.223242,1.00149 0,0.66042 0.223242,1.00149 0.223242,0.33796 0.657324,0.33796 0.437183,0 0.660425,-0.33796 0.223242,-0.34107 0.223242,-1.00149 0,-0.66353 -0.223242,-1.00149 -0.223242,-0.33796 -0.660425,-0.33796 z m 0,-0.4837 q 0.722437,0 1.103809,0.46819 0.384473,0.46819 0.384473,1.35496 0,0.88987 -0.381373,1.35805 -0.381372,0.46509 -1.106909,0.46509 -0.722436,0 -1.103808,-0.46509 -0.381372,-0.46818 -0.381372,-1.35805 0,-0.88677 0.381372,-1.35496 0.381372,-0.46819 1.103808,-0.46819 z"
         style="font-style:normal;font-variant:normal;font-weight:normal;font-stretch:normal;font-size:6.3499999px;font-family:'DejaVu Sans Mono';-inkscape-font-specification:'DejaVu Sans Mono';stroke-width:0.26458332"
         id="path1195" />
      <path
         d="m 29.693435,175.66684 h 1.460376 v 3.02927 h 1.131714 v 0.44339 h -2.833936 v -0.44339 h 1.131714 v -2.58589 h -0.889868 z m 0.889868,-1.35186 h 0.570508 v 0.72244 h -0.570508 z"
         style="font-style:normal;font-variant:normal;font-weight:normal;font-stretch:normal;font-size:6.3499999px;font-family:'DejaVu Sans Mono';-inkscape-font-specification:'DejaVu Sans Mono';stroke-width:0.26458332"
         id="path1197" />
      <path
         d="m 36.009329,178.96276 q -0.229443,0.13333 -0.47439,0.19844 -0.241845,0.0682 -0.496093,0.0682 -0.806153,0 -1.261939,-0.48369 -0.452685,-0.48369 -0.452685,-1.33945 0,-0.85576 0.452685,-1.33945 0.455786,-0.4837 1.261939,-0.4837 0.251147,0 0.489892,0.0651 0.238745,0.0651 0.480591,0.20153 v 0.59842 q -0.226343,-0.20154 -0.455786,-0.29146 -0.226343,-0.0899 -0.514697,-0.0899 -0.536402,0 -0.824756,0.34726 -0.288355,0.34727 -0.288355,0.99219 0,0.64182 0.288355,0.99219 0.291455,0.34726 0.824756,0.34726 0.297656,0 0.5333,-0.0899 0.235645,-0.093 0.437183,-0.28525 z"
         style="font-style:normal;font-variant:normal;font-weight:normal;font-stretch:normal;font-size:6.3499999px;font-family:'DejaVu Sans Mono';-inkscape-font-specification:'DejaVu Sans Mono';stroke-width:0.26458332"
         id="path1199" />
      <path
         d="m 39.98738,177.26054 v 0.27905 h -2.471167 v 0.0186 q 0,0.5674 0.294556,0.87746 0.297656,0.31006 0.837158,0.31006 0.272852,0 0.570508,-0.0868 0.297656,-0.0868 0.63562,-0.26355 v 0.5674 q -0.325561,0.13333 -0.629419,0.19844 -0.300757,0.0682 -0.58291,0.0682 -0.809253,0 -1.265039,-0.48369 -0.455786,-0.48679 -0.455786,-1.33945 0,-0.83096 0.446484,-1.32705 0.446485,-0.4961 1.190625,-0.4961 0.663526,0 1.044898,0.44959 0.384472,0.44958 0.384472,1.22783 z m -0.570507,-0.16743 q -0.0124,-0.5023 -0.238746,-0.76274 -0.223242,-0.26355 -0.644921,-0.26355 -0.412378,0 -0.679029,0.27285 -0.26665,0.27285 -0.316259,0.75654 z"
         style="font-style:normal;font-variant:normal;font-weight:normal;font-stretch:normal;font-size:6.3499999px;font-family:'DejaVu Sans Mono';-inkscape-font-specification:'DejaVu Sans Mono';stroke-width:0.26458332"
         id="path1201" />
    </g>
    <g
       aria-label="cv
att"
       style="font-style:normal;font-weight:normal;font-size:10.58333302px;line-height:0;font-family:sans-serif;letter-spacing:0px;word-spacing:0px;fill:#000000;fill-opacity:1;stroke:none;stroke-width:0.26458332"
       id="text2599">
      <path
         d="m 50.709254,190.2239 q -0.08923,0.0519 -0.184484,0.0772 -0.09405,0.0265 -0.192926,0.0265 -0.313503,0 -0.490754,-0.1881 -0.176044,-0.1881 -0.176044,-0.5209 0,-0.3328 0.176044,-0.5209 0.177251,-0.1881 0.490754,-0.1881 0.09767,0 0.190514,0.0253 0.09285,0.0253 0.186896,0.0784 v 0.23271 q -0.08802,-0.0784 -0.17725,-0.11334 -0.08802,-0.035 -0.20016,-0.035 -0.2086,0 -0.320738,0.13505 -0.112138,0.13505 -0.112138,0.38585 0,0.2496 0.112138,0.38585 0.113343,0.13505 0.320738,0.13505 0.115755,0 0.207395,-0.035 0.09164,-0.0362 0.170015,-0.11093 z"
         style="font-style:normal;font-variant:normal;font-weight:normal;font-stretch:normal;font-size:2.46944451px;line-height:0;font-family:'DejaVu Sans Mono';-inkscape-font-specification:'DejaVu Sans Mono';text-align:center;text-anchor:middle;stroke-width:0.26458332"
         id="path2605" />
      <path
         d="m 51.036022,188.94216 h 0.230304 l 0.39188,1.13343 0.393085,-1.13343 h 0.230305 l -0.479902,1.35047 h -0.28577 z"
         style="font-style:normal;font-variant:normal;font-weight:normal;font-stretch:normal;font-size:2.46944451px;line-height:0;font-family:'DejaVu Sans Mono';-inkscape-font-specification:'DejaVu Sans Mono';text-align:center;text-anchor:middle;stroke-width:0.26458332"
         id="path2607" />
      <path
         d="m 49.533616,191.72149 h -0.07355 q -0.194131,0 -0.293006,0.0687 -0.09767,0.0675 -0.09767,0.20257 0,0.12178 0.07355,0.18931 0.07355,0.0675 0.203777,0.0675 0.183279,0 0.288182,-0.12661 0.104904,-0.12781 0.106109,-0.35209 v -0.0494 z m 0.430464,-0.0916 v 0.77049 h -0.22307 v -0.20016 q -0.07114,0.12058 -0.179661,0.17846 -0.107315,0.0567 -0.261655,0.0567 -0.206189,0 -0.329179,-0.11576 -0.12299,-0.11696 -0.12299,-0.31229 0,-0.22548 0.150723,-0.34245 0.151928,-0.11696 0.444934,-0.11696 h 0.297828 v -0.035 q -0.0012,-0.16158 -0.08199,-0.23393 -0.08079,-0.0736 -0.258038,-0.0736 -0.113343,0 -0.229098,0.0326 -0.115756,0.0326 -0.225482,0.0953 v -0.22186 q 0.12299,-0.047 0.235128,-0.0699 0.113343,-0.0241 0.219452,-0.0241 0.167604,0 0.285771,0.0494 0.119373,0.0494 0.192925,0.14831 0.04582,0.0603 0.06511,0.14951 0.01929,0.088 0.01929,0.26528 z"
         style="font-style:normal;font-variant:normal;font-weight:normal;font-stretch:normal;font-size:2.46944451px;line-height:0;font-family:'DejaVu Sans Mono';-inkscape-font-specification:'DejaVu Sans Mono';text-align:center;text-anchor:middle;stroke-width:0.26458332"
         id="path2609" />
      <path
         d="m 50.913032,190.66643 v 0.38343 h 0.504017 v 0.17243 h -0.504017 v 0.73312 q 0,0.14952 0.05667,0.2086 0.05667,0.0591 0.197748,0.0591 h 0.249597 v 0.17725 h -0.271301 q -0.249597,0 -0.352089,-0.10008 -0.102491,-0.10008 -0.102491,-0.34485 v -0.73312 h -0.36053 v -0.17243 h 0.36053 v -0.38343 z"
         style="font-style:normal;font-variant:normal;font-weight:normal;font-stretch:normal;font-size:2.46944451px;line-height:0;font-family:'DejaVu Sans Mono';-inkscape-font-specification:'DejaVu Sans Mono';text-align:center;text-anchor:middle;stroke-width:0.26458332"
         id="path2611" />
      <path
         d="m 52.398557,190.66643 v 0.38343 h 0.504018 v 0.17243 h -0.504018 v 0.73312 q 0,0.14952 0.05667,0.2086 0.05667,0.0591 0.197748,0.0591 h 0.249598 v 0.17725 h -0.271302 q -0.249597,0 -0.352088,-0.10008 -0.102492,-0.10008 -0.102492,-0.34485 v -0.73312 h -0.360529 v -0.17243 h 0.360529 v -0.38343 z"
         style="font-style:normal;font-variant:normal;font-weight:normal;font-stretch:normal;font-size:2.46944451px;line-height:0;font-family:'DejaVu Sans Mono';-inkscape-font-specification:'DejaVu Sans Mono';text-align:center;text-anchor:middle;stroke-width:0.26458332"
         id="path2613" />
    </g>
    <g
       transform="translate(-0.0270236,48.412759)"
       aria-label="cv att"
       style="font-style:normal;font-weight:normal;font-size:10.58333302px;line-height:0;font-family:sans-serif;letter-spacing:0px;word-spacing:0px;display:inline;fill:#000000;fill-opacity:1;stroke:none;stroke-width:0.26458332"
       id="text2599-9">
      <path
         inkscape:connector-curvature="0"
         d="m 50.709254,190.2239 q -0.08923,0.0519 -0.184484,0.0772 -0.09405,0.0265 -0.192926,0.0265 -0.313503,0 -0.490754,-0.1881 -0.176044,-0.1881 -0.176044,-0.5209 0,-0.3328 0.176044,-0.5209 0.177251,-0.1881 0.490754,-0.1881 0.09767,0 0.190514,0.0253 0.09285,0.0253 0.186896,0.0784 v 0.23271 q -0.08802,-0.0784 -0.17725,-0.11334 -0.08802,-0.035 -0.20016,-0.035 -0.2086,0 -0.320738,0.13505 -0.112138,0.13505 -0.112138,0.38585 0,0.2496 0.112138,0.38585 0.113343,0.13505 0.320738,0.13505 0.115755,0 0.207395,-0.035 0.09164,-0.0362 0.170015,-0.11093 z"
         style="font-style:normal;font-variant:normal;font-weight:normal;font-stretch:normal;font-size:2.46944451px;line-height:0;font-family:'DejaVu Sans Mono';-inkscape-font-specification:'DejaVu Sans Mono';text-align:center;text-anchor:middle;stroke-width:0.26458332"
         id="path2605-2" />
      <path
         inkscape:connector-curvature="0"
         d="m 51.036022,188.94216 h 0.230304 l 0.39188,1.13343 0.393085,-1.13343 h 0.230305 l -0.479902,1.35047 h -0.28577 z"
         style="font-style:normal;font-variant:normal;font-weight:normal;font-stretch:normal;font-size:2.46944451px;line-height:0;font-family:'DejaVu Sans Mono';-inkscape-font-specification:'DejaVu Sans Mono';text-align:center;text-anchor:middle;stroke-width:0.26458332"
         id="path2607-0" />
      <path
         inkscape:connector-curvature="0"
         d="m 49.533616,191.72149 h -0.07355 q -0.194131,0 -0.293006,0.0687 -0.09767,0.0675 -0.09767,0.20257 0,0.12178 0.07355,0.18931 0.07355,0.0675 0.203777,0.0675 0.183279,0 0.288182,-0.12661 0.104904,-0.12781 0.106109,-0.35209 v -0.0494 z m 0.430464,-0.0916 v 0.77049 h -0.22307 v -0.20016 q -0.07114,0.12058 -0.179661,0.17846 -0.107315,0.0567 -0.261655,0.0567 -0.206189,0 -0.329179,-0.11576 -0.12299,-0.11696 -0.12299,-0.31229 0,-0.22548 0.150723,-0.34245 0.151928,-0.11696 0.444934,-0.11696 h 0.297828 v -0.035 q -0.0012,-0.16158 -0.08199,-0.23393 -0.08079,-0.0736 -0.258038,-0.0736 -0.113343,0 -0.229098,0.0326 -0.115756,0.0326 -0.225482,0.0953 v -0.22186 q 0.12299,-0.047 0.235128,-0.0699 0.113343,-0.0241 0.219452,-0.0241 0.167604,0 0.285771,0.0494 0.119373,0.0494 0.192925,0.14831 0.04582,0.0603 0.06511,0.14951 0.01929,0.088 0.01929,0.26528 z"
         style="font-style:normal;font-variant:normal;font-weight:normal;font-stretch:normal;font-size:2.46944451px;line-height:0;font-family:'DejaVu Sans Mono';-inkscape-font-specification:'DejaVu Sans Mono';text-align:center;text-anchor:middle;stroke-width:0.26458332"
         id="path2609-2" />
      <path
         inkscape:connector-curvature="0"
         d="m 50.913032,190.66643 v 0.38343 h 0.504017 v 0.17243 h -0.504017 v 0.73312 q 0,0.14952 0.05667,0.2086 0.05667,0.0591 0.197748,0.0591 h 0.249597 v 0.17725 h -0.271301 q -0.249597,0 -0.352089,-0.10008 -0.102491,-0.10008 -0.102491,-0.34485 v -0.73312 h -0.36053 v -0.17243 h 0.36053 v -0.38343 z"
         style="font-style:normal;font-variant:normal;font-weight:normal;font-stretch:normal;font-size:2.46944451px;line-height:0;font-family:'DejaVu Sans Mono';-inkscape-font-specification:'DejaVu Sans Mono';text-align:center;text-anchor:middle;stroke-width:0.26458332"
         id="path2611-3" />
      <path
         inkscape:connector-curvature="0"
         d="m 52.398557,190.66643 v 0.38343 h 0.504018 v 0.17243 h -0.504018 v 0.73312 q 0,0.14952 0.05667,0.2086 0.05667,0.0591 0.197748,0.0591 h 0.249598 v 0.17725 h -0.271302 q -0.249597,0 -0.352088,-0.10008 -0.102492,-0.10008 -0.102492,-0.34485 v -0.73312 h -0.360529 v -0.17243 h 0.360529 v -0.38343 z"
         style="font-style:normal;font-variant:normal;font-weight:normal;font-stretch:normal;font-size:2.46944451px;line-height:0;font-family:'DejaVu Sans Mono';-inkscape-font-specification:'DejaVu Sans Mono';text-align:center;text-anchor:middle;stroke-width:0.26458332"
         id="path2613-7" />
    </g>
  </g>
  <g
     inkscape:groupmode="layer"
     id="layer2"
     inkscape:label="components"
     style="display:none">
    <circle
       style="display:inline;opacity:1;vector-effect:none;fill:#0000ff;fill-opacity:1;fill-rule:evenodd;stroke:none;stroke-width:1;stroke-linecap:butt;stroke-linejoin:miter;stroke-miterlimit:4;stroke-dasharray:none;stroke-dashoffset:0;stroke-opacity:1;paint-order:normal"
       id="circle4958"
       cx="43.030396"
       cy="109.03423"
       r="4"
       inkscape:label="out" />
    <circle
       inkscape:label="trig"
       style="display:inline;opacity:1;vector-effect:none;fill:#00ff00;fill-opacity:1;fill-rule:evenodd;stroke:none;stroke-width:1;stroke-linecap:butt;stroke-linejoin:miter;stroke-miterlimit:4;stroke-dasharray:none;stroke-dashoffset:0;stroke-opacity:1;paint-order:normal"
       id="circle4584-3-5-5"
       cx="11.759859"
       cy="109.03423"
       r="4" />
    <circle
       r="2.0622959"
       cy="19.119942"
       cx="20.312485"
       id="circle4956-6"
       style="display:inline;opacity:1;vector-effect:none;fill:#ff00ff;fill-opacity:1;fill-rule:evenodd;stroke:none;stroke-width:0.51557398;stroke-linecap:butt;stroke-linejoin:miter;stroke-miterlimit:4;stroke-dasharray:none;stroke-dashoffset:0;stroke-opacity:1;paint-order:normal"
       inkscape:label="led1" />
    <circle
       r="2.0622959"
       cy="31.715029"
       cx="20.312485"
       id="circle4956-6-1"
       style="display:inline;opacity:1;vector-effect:none;fill:#ff00ff;fill-opacity:1;fill-rule:evenodd;stroke:none;stroke-width:0.51557398;stroke-linecap:butt;stroke-linejoin:miter;stroke-miterlimit:4;stroke-dasharray:none;stroke-dashoffset:0;stroke-opacity:1;paint-order:normal"
       inkscape:label="led2" />
    <circle
       r="2.0622959"
       cy="44.310097"
       cx="20.312485"
       id="circle4956-6-8"
       style="display:inline;opacity:1;vector-effect:none;fill:#ff00ff;fill-opacity:1;fill-rule:evenodd;stroke:none;stroke-width:0.51557398;stroke-linecap:butt;stroke-linejoin:miter;stroke-miterlimit:4;stroke-dasharray:none;stroke-dashoffset:0;stroke-opacity:1;paint-order:normal"
       inkscape:label="led3" />
    <circle
       r="2.0622959"
       cy="56.905178"
       cx="20.312485"
       id="circle4956-6-7"
       style="display:inline;opacity:1;vector-effect:none;fill:#ff00ff;fill-opacity:1;fill-rule:evenodd;stroke:none;stroke-width:0.51557398;stroke-linecap:butt;stroke-linejoin:miter;stroke-miterlimit:4;stroke-dasharray:none;stroke-dashoffset:0;stroke-opacity:1;paint-order:normal"
       inkscape:label="led4" />
    <circle
       r="2.0622959"
       cy="69.500252"
       cx="20.312485"
       id="circle4956-6-9"
       style="display:inline;opacity:1;vector-effect:none;fill:#ff00ff;fill-opacity:1;fill-rule:evenodd;stroke:none;stroke-width:0.51557398;stroke-linecap:butt;stroke-linejoin:miter;stroke-miterlimit:4;stroke-dasharray:none;stroke-dashoffset:0;stroke-opacity:1;paint-order:normal"
       inkscape:label="led5" />
    <circle
       r="2.0622959"
       cy="82.095329"
       cx="20.312485"
       id="circle4956-6-2"
       style="display:inline;opacity:1;vector-effect:none;fill:#ff00ff;fill-opacity:1;fill-rule:evenodd;stroke:none;stroke-width:0.51557398;stroke-linecap:butt;stroke-linejoin:miter;stroke-miterlimit:4;stroke-dasharray:none;stroke-dashoffset:0;stroke-opacity:1;paint-order:normal"
       inkscape:label="led6" />
    <circle
       r="2.0622959"
       cy="94.690407"
       cx="20.312485"
       id="circle4956-6-0"
       style="display:inline;opacity:1;vector-effect:none;fill:#ff00ff;fill-opacity:1;fill-rule:evenodd;stroke:none;stroke-width:0.51557398;stroke-linecap:butt;stroke-linejoin:miter;stroke-miterlimit:4;stroke-dasharray:none;stroke-dashoffset:0;stroke-opacity:1;paint-order:normal"
       inkscape:label="led7" />
    <circle
       inkscape:label="in2"
       style="display:inline;opacity:1;vector-effect:none;fill:#00ff00;fill-opacity:1;fill-rule:evenodd;stroke:none;stroke-width:1;stroke-linecap:butt;stroke-linejoin:miter;stroke-miterlimit:4;stroke-dasharray:none;stroke-dashoffset:0;stroke-opacity:1;paint-order:normal"
       id="circle4584-3-5-5-2"
       cx="11.749114"
       cy="31.675093"
       r="4" />
    <circle
       inkscape:label="in1"
       style="display:inline;opacity:0.95;vector-effect:none;fill:#00ff00;fill-opacity:1;fill-rule:evenodd;stroke:none;stroke-width:1;stroke-linecap:butt;stroke-linejoin:miter;stroke-miterlimit:4;stroke-dasharray:none;stroke-dashoffset:0;stroke-opacity:1;paint-order:normal"
       id="circle4584-3-5-5-3"
       cx="11.749114"
       cy="19.075888"
       r="4" />
    <circle
       inkscape:label="in3"
       style="display:inline;opacity:1;vector-effect:none;fill:#00ff00;fill-opacity:1;fill-rule:evenodd;stroke:none;stroke-width:1;stroke-linecap:butt;stroke-linejoin:miter;stroke-miterlimit:4;stroke-dasharray:none;stroke-dashoffset:0;stroke-opacity:1;paint-order:normal"
       id="circle4584-3-5-5-7"
       cx="11.749114"
       cy="44.2743"
       r="4" />
    <circle
       inkscape:label="in4"
       style="display:inline;opacity:1;vector-effect:none;fill:#00ff00;fill-opacity:1;fill-rule:evenodd;stroke:none;stroke-width:1;stroke-linecap:butt;stroke-linejoin:miter;stroke-miterlimit:4;stroke-dasharray:none;stroke-dashoffset:0;stroke-opacity:1;paint-order:normal"
       id="circle4584-3-5-5-5"
       cx="11.749114"
       cy="56.873508"
       r="4" />
    <circle
       inkscape:label="in5"
       style="display:inline;opacity:1;vector-effect:none;fill:#00ff00;fill-opacity:1;fill-rule:evenodd;stroke:none;stroke-width:1;stroke-linecap:butt;stroke-linejoin:miter;stroke-miterlimit:4;stroke-dasharray:none;stroke-dashoffset:0;stroke-opacity:1;paint-order:normal"
       id="circle4584-3-5-5-9"
       cx="11.749114"
       cy="69.472717"
       r="4" />
    <circle
       inkscape:label="in6"
       style="display:inline;opacity:1;vector-effect:none;fill:#00ff00;fill-opacity:1;fill-rule:evenodd;stroke:none;stroke-width:1;stroke-linecap:butt;stroke-linejoin:miter;stroke-miterlimit:4;stroke-dasharray:none;stroke-dashoffset:0;stroke-opacity:1;paint-order:normal"
       id="circle4584-3-5-5-22"
       cx="11.749114"
       cy="82.071922"
       r="4" />
    <circle
       inkscape:label="in7"
       style="display:inline;opacity:1;vector-effect:none;fill:#00ff00;fill-opacity:1;fill-rule:evenodd;stroke:none;stroke-width:1;stroke-linecap:butt;stroke-linejoin:miter;stroke-miterlimit:4;stroke-dasharray:none;stroke-dashoffset:0;stroke-opacity:1;paint-order:normal"
       id="circle4584-3-5-5-8"
       cx="11.749114"
       cy="94.671135"
       r="4" />
    <rect
       style="opacity:0.95;fill:#ff0000;fill-opacity:1;fill-rule:evenodd;stroke:#ff0000;stroke-width:0.5;stroke-miterlimit:4;stroke-dasharray:none;stroke-dashoffset:0;stroke-opacity:1"
       id="rect919"
       width="1.5119048"
       height="83.154762"
       x="26.614895"
       y="15.296131"
       ry="0"
       inkscape:label="mean" />
    <circle
       inkscape:label="mean_cv"
       style="display:inline;opacity:0.95;vector-effect:none;fill:#00ff00;fill-opacity:1;fill-rule:evenodd;stroke:none;stroke-width:1;stroke-linecap:butt;stroke-linejoin:miter;stroke-miterlimit:4;stroke-dasharray:none;stroke-dashoffset:0;stroke-opacity:1;paint-order:normal"
       id="circle4584-3-5-5-3-6"
       cx="43.030392"
       cy="32.417782"
       r="4" />
    <circle
       r="2.0622959"
       cy="22.210838"
       cx="43.030392"
       id="circle4956-6-1-7"
       style="display:inline;opacity:1;vector-effect:none;fill:#ff0000;fill-opacity:1;fill-rule:evenodd;stroke:none;stroke-width:0.51557398;stroke-linecap:butt;stroke-linejoin:miter;stroke-miterlimit:4;stroke-dasharray:none;stroke-dashoffset:0;stroke-opacity:1;paint-order:normal"
       inkscape:label="mean_att" />
    <circle
       inkscape:label="spread_cv"
       style="display:inline;opacity:0.95;vector-effect:none;fill:#00ff00;fill-opacity:1;fill-rule:evenodd;stroke:none;stroke-width:1;stroke-linecap:butt;stroke-linejoin:miter;stroke-miterlimit:4;stroke-dasharray:none;stroke-dashoffset:0;stroke-opacity:1;paint-order:normal"
       id="circle4584-3-5-5-3-6-6"
       cx="43.030392"
       cy="80.872307"
       r="4" />
    <circle
       r="2.0622959"
       cy="70.665359"
       cx="43.030392"
       id="circle4956-6-1-7-2"
       style="display:inline;opacity:1;vector-effect:none;fill:#ff0000;fill-opacity:1;fill-rule:evenodd;stroke:none;stroke-width:0.51557398;stroke-linecap:butt;stroke-linejoin:miter;stroke-miterlimit:4;stroke-dasharray:none;stroke-dashoffset:0;stroke-opacity:1;paint-order:normal"
       inkscape:label="spread_att" />
    <circle
       inkscape:label="spread"
       style="display:inline;opacity:0.95;vector-effect:none;fill:#ff0000;fill-opacity:1;fill-rule:evenodd;stroke:none;stroke-width:1;stroke-linecap:butt;stroke-linejoin:miter;stroke-miterlimit:4;stroke-dasharray:none;stroke-dashoffset:0;stroke-opacity:1;paint-order:normal"
       id="circle4584-3-5-5-3-6-6-9"
       cx="43.030392"
       cy="58.208115"
       r="4" />
  </g>
</svg>
